<?xml version="1.0" encoding="UTF-8" standalone="no"?>
<svg
   width="2000"
   height="2000"
   fill="none"
   viewBox="0 0 2000 2000"
   version="1.1"
   id="svg70"
   sodipodi:docname="opengraph2.svg"
   xml:space="preserve"
   inkscape:version="1.2 (dc2aedaf03, 2022-05-15)"
   xmlns:inkscape="http://www.inkscape.org/namespaces/inkscape"
   xmlns:sodipodi="http://sodipodi.sourceforge.net/DTD/sodipodi-0.dtd"
   xmlns="http://www.w3.org/2000/svg"
   xmlns:svg="http://www.w3.org/2000/svg"><sodipodi:namedview
     id="namedview72"
     pagecolor="#ffffff"
     bordercolor="#000000"
     borderopacity="0.25"
     inkscape:showpageshadow="2"
     inkscape:pageopacity="0.0"
     inkscape:pagecheckerboard="0"
     inkscape:deskcolor="#d1d1d1"
     showgrid="false"
     inkscape:zoom="0.32224576"
     inkscape:cx="124.12886"
     inkscape:cy="1050.4405"
     inkscape:window-width="1920"
     inkscape:window-height="1001"
     inkscape:window-x="-9"
     inkscape:window-y="-9"
     inkscape:window-maximized="1"
     inkscape:current-layer="g1527" /><rect
     style="fill:#7d2ae7;fill-opacity:1;stroke-width:61.3619"
     id="rect529"
     width="2000"
     height="2000"
     x="0"
     y="0"
     inkscape:label="háttér" /><g
     filter="url(#b)"
     id="g8"
     inkscape:label="kék3"
     transform="translate(-162.37887,250.15123)"><path
       fill="#bbf3f4"
       fill-rule="evenodd"
       d="m 384.335,-250.731 c 64.653,-4.211 114.422,41.792 149.67,80.965 28.41,31.573 19.829,69.951 19.954,107.55 0.126,37.751 11.118,77.25 -19.236,108.064 -35.011,35.542 -89.804,65.073 -150.388,64.13 -59.889,-0.932 -103.597,-36.94 -144.014,-68.71 -37.969,-29.846 -79.063,-63.151 -75.049,-103.485 3.866,-38.843 59.536,-59.779 94.272,-89.671 41.25,-35.497 60.695,-94.668 124.791,-98.843 z"
       clip-rule="evenodd"
       id="path6" /></g><g
     filter="url(#a)"
     id="g4"
     inkscape:label="kék2"
     transform="matrix(2.4682509,0,0,2.3304078,156.36065,807.33292)"><path
       fill="#00c4cc"
       fill-rule="evenodd"
       d="m 20.348,-101.316 c 58.518,2.878 113.036,23.869 154.613,60.03 41.724,36.288 69.464,83.862 70.025,135.346 0.566,51.947 -16.278,111.049 -67.046,137.953 C 130.787,257 75.409,210.871 20.348,213.102 c -61.194,2.48 -122.516,62.817 -172.889,32.301 -49.722,-30.121 -23.598,-98.412 -23.62,-151.343 -0.022,-52.965 -16.49,-111.704 23.492,-151.456 41.252,-41.013 110.691,-46.984 173.017,-43.92 z"
       clip-rule="evenodd"
       id="path2" /></g><g
     filter="url(#f)"
     id="g24"
     inkscape:label="kék1"
     transform="matrix(2.3956451,0,0,1.8509427,-681.81698,432.55532)"><path
       fill="#00c4cc"
       fill-rule="evenodd"
       d="m 553.348,-265.316 c 58.518,2.878 113.036,23.869 154.613,60.03 41.724,36.288 69.464,83.862 70.025,135.346 C 778.552,-17.993 761.708,41.109 710.94,68.012 663.787,93 608.409,46.872 553.348,49.102 c -61.194,2.48 -122.516,62.817 -172.889,32.301 -49.722,-30.12 -23.598,-98.412 -23.62,-151.343 -0.022,-52.965 -16.49,-111.704 23.492,-151.456 41.252,-41.013 110.691,-46.984 173.017,-43.92 z"
       clip-rule="evenodd"
       id="path22" /></g><g
     filter="url(#c)"
     id="g12"
     transform="matrix(3.1735189,0,0,2.7448722,-1603.1912,-402.21949)"
     inkscape:label="lila3"><path
       fill="#a570ff"
       fill-rule="evenodd"
       d="m 1023.38,215.95 c 45.21,7.108 72.51,49.006 106.16,81 36.24,34.444 96.11,58.854 94.43,109.696 -1.69,50.759 -61.18,73.312 -101.45,102.438 -30.48,22.052 -62.59,35.403 -99.14,42.655 -49.81,9.884 -110.636,43.352 -146.259,6.04 -35.644,-37.334 7.389,-98.69 7.737,-151.133 C 885.202,354.95 849.08,298.92 879.115,257.574 910.274,214.68 972.07,207.882 1023.38,215.95 Z"
       clip-rule="evenodd"
       id="path10" /></g><g
     filter="url(#e)"
     id="g20"
     inkscape:label="lila2"
     transform="matrix(1.7389176,0,0,1.5462704,-1059.8599,1420.8123)"><path
       fill="#c4bcfe"
       fill-rule="evenodd"
       d="m 1120.01,161.018 c 56.18,-1.246 75.24,62.966 115.94,95.65 42.79,34.358 127.55,48.015 124.99,97.802 -2.57,50.095 -91.66,55.024 -134.62,89.677 -40.92,33.005 -50.54,96.402 -106.31,104.656 -58.3,8.631 -109.85,-31.054 -151.559,-66.485 -41.535,-35.28 -86.478,-78.742 -77.229,-127.848 8.804,-46.737 79.165,-59.288 118.788,-92.791 39.72,-33.585 53.78,-99.414 110,-100.661 z"
       clip-rule="evenodd"
       id="path18" /></g><g
     filter="url(#d)"
     id="g16"
     transform="matrix(2.5879795,0,0,1.9707793,-1284.1574,609.63853)"
     inkscape:label="lila1"><path
       fill="#e5ccfd"
       fill-rule="evenodd"
       d="m 1235.98,206.118 c 76.28,4.036 85.5,116.949 140.89,169.562 58.62,55.677 163.78,63.152 185.95,140.896 25.07,87.903 -0.57,198.245 -73.51,253.337 -70.07,52.927 -166.03,2.991 -253.33,-6.467 -71.77,-7.775 -151.26,6.419 -203.81,-43.059 -53.5,-50.36 -67.972,-130.962 -58.438,-203.811 8.495,-64.909 63.368,-106.629 105.608,-156.638 49.09,-58.116 80.67,-157.839 156.64,-153.82 z"
       clip-rule="evenodd"
       id="path14" /></g><defs
     id="defs68"><filter
       id="a"
       width="1088"
       height="1016"
       x="-513"
       y="-432"
       color-interpolation-filters="sRGB"
       filterUnits="userSpaceOnUse"><feFlood
         flood-opacity="0"
         result="BackgroundImageFix"
         id="feFlood26" /><feBlend
         in="SourceGraphic"
         in2="BackgroundImageFix"
         result="shape"
         id="feBlend28"
         mode="normal" /><feGaussianBlur
         result="effect1_foregroundBlur_3_84"
         stdDeviation="165"
         id="feGaussianBlur30" /></filter><filter
       id="b"
       width="1191"
       height="1161"
       x="-235"
       y="-651"
       color-interpolation-filters="sRGB"
       filterUnits="userSpaceOnUse"><feFlood
         flood-opacity="0"
         result="BackgroundImageFix"
         id="feFlood33" /><feBlend
         in="SourceGraphic"
         in2="BackgroundImageFix"
         result="shape"
         id="feBlend35"
         mode="normal" /><feGaussianBlur
         result="effect1_foregroundBlur_3_84"
         stdDeviation="200"
         id="feGaussianBlur37" /></filter><filter
       id="c"
       width="1161"
       height="1162"
       x="463"
       y="-187"
       color-interpolation-filters="sRGB"
       filterUnits="userSpaceOnUse"><feFlood
         flood-opacity="0"
         result="BackgroundImageFix"
         id="feFlood40" /><feBlend
         in="SourceGraphic"
         in2="BackgroundImageFix"
         result="shape"
         id="feBlend42"
         mode="normal" /><feGaussianBlur
         result="effect1_foregroundBlur_3_84"
         stdDeviation="200"
         id="feGaussianBlur44" /></filter><filter
       id="d"
       width="1401.17"
       height="1387.86"
       x="571"
       y="-194"
       color-interpolation-filters="sRGB"
       filterUnits="userSpaceOnUse"><feFlood
         flood-opacity="0"
         result="BackgroundImageFix"
         id="feFlood47" /><feBlend
         in="SourceGraphic"
         in2="BackgroundImageFix"
         result="shape"
         id="feBlend49"
         mode="normal" /><feGaussianBlur
         result="effect1_foregroundBlur_3_84"
         stdDeviation="200"
         id="feGaussianBlur51" /></filter><filter
       id="e"
       width="1271"
       height="1189"
       x="490"
       y="-239"
       color-interpolation-filters="sRGB"
       filterUnits="userSpaceOnUse"><feFlood
         flood-opacity="0"
         result="BackgroundImageFix"
         id="feFlood54" /><feBlend
         in="SourceGraphic"
         in2="BackgroundImageFix"
         result="shape"
         id="feBlend56"
         mode="normal" /><feGaussianBlur
         result="effect1_foregroundBlur_3_84"
         stdDeviation="200"
         id="feGaussianBlur58" /></filter><filter
       id="f"
       width="1088"
       height="1016"
       x="20"
       y="-596"
       color-interpolation-filters="sRGB"
       filterUnits="userSpaceOnUse"><feFlood
         flood-opacity="0"
         result="BackgroundImageFix"
         id="feFlood61" /><feBlend
         in="SourceGraphic"
         in2="BackgroundImageFix"
         result="shape"
         id="feBlend63"
         mode="normal" /><feGaussianBlur
         result="effect1_foregroundBlur_3_84"
         stdDeviation="165"
         id="feGaussianBlur65" /></filter></defs><g
     id="g1527"
     transform="translate(0,-121.40845)"><path
       style="fill:#ffffff;stroke:none;stroke-width:0.81"
       d="m 778.00289,808.31627 c -42.3954,5.56956 -81.09882,19.17918 -113.4,48.39426 -80.73108,73.01583 -85.09374,202.57297 -8.09676,280.12237 43.73757,44.0478 106.01685,63.0099 166.85676,54.0513 12.99483,-1.9197 25.77825,-5.2083 38.07,-9.8496 6.11307,-2.3004 13.64526,-7.5411 20.25,-7.533 7.44309,0.016 15.35598,2.5272 22.68,3.7665 15.65811,2.6406 31.38993,5.1435 46.98,8.1648 7.91046,1.5309 20.41524,6.1074 28.33785,4.4388 8.95455,-1.8954 2.22588,-19.6911 1.13724,-25.4988 -3.44898,-18.4032 -7.45848,-36.7011 -11.00466,-55.08 -1.28304,-6.6501 -5.30793,-16.9209 -3.10473,-23.49 3.2238,-9.6147 8.14617,-18.5247 11.02086,-28.35 8.02224,-27.4185 10.40364,-55.9386 6.59664,-84.24007 -12.94056,-96.0498 -107.16543,-177.92136 -206.3232,-164.89656 m 1.62,18.51822 c 94.41198,-11.13993 179.05779,66.91248 187.7823,158.52834 2.0898,21.94297 -0.64881,45.35197 -6.92631,66.42007 -2.71512,9.1125 -7.77924,17.6499 -10.23678,26.73 -1.72368,6.3666 1.93833,15.5277 3.20679,21.87 l 9.72,48.6 c 1.07406,5.3784 7.04214,21.2949 -1.31058,23.0688 -6.44031,1.3608 -16.19757,-2.4705 -22.66542,-3.564 -14.85864,-2.511 -29.72052,-5.022 -44.55,-7.695 -6.66549,-1.2069 -14.28678,-3.7179 -21.06,-3.5559 -5.76315,0.1458 -11.6964,4.3011 -17.01,6.2856 -10.46034,3.9123 -21.33459,7.1685 -32.4,8.8452 -56.09493,8.4564 -114.27885,-7.0875 -154.5723,-48.5676 -70.29018,-72.3654 -65.53872,-191.74327 12.0123,-257.15158 28.15317,-23.74515 61.92693,-35.55657 98.01,-39.81393 m 6.48,14.69178 c -48.24603,6.3342 -89.98938,23.27049 -120.30525,63.64656 -66.75048,88.9056 -19.63521,224.26477 89.52525,250.10377 19.18647,4.536 39.55959,5.832 59.13,3.1995 79.00659,-10.6434 136.20231,-78.3108 138.30021,-156.9132 1.88325,-70.58347 -48.58137,-135.1105 -115.62021,-154.24108 -15.81363,-4.51332 -34.56918,-7.95663 -51.03,-5.79555 m 538.64991,104.14656 v -41.31 c 0,-11.5182 3.321,-29.03202 -3.888,-38.8476 -8.8857,-12.09573 -32.5296,-9.34011 -37.7784,4.8276 -2.1384,5.77206 -1.2636,12.58497 -1.2636,18.63 v 34.83 118.26007 c 0,17.7066 -5.1354,45.2223 19.44,47.6523 10.4814,1.0368 21.3192,-5.1921 23.2227,-16.0623 4.6332,-26.406 -3.0537,-54.432 2.43,-81.00007 3.1914,-15.47505 15.6249,-32.07438 33.4773,-25.46721 13.608,5.0382 12.96,18.29871 12.96,30.32721 0,24.62407 -3.7746,52.77967 1.0611,76.95007 3.1266,15.5844 24.9237,19.7802 36.126,10.2141 6.5043,-5.5566 6.5529,-13.7376 6.5529,-21.5541 v -40.5 c 0,-29.45167 7.0875,-74.12155 -25.92,-89.18026 -6.3504,-2.89818 -12.6441,-3.42873 -19.44,-4.20066 -6.9903,-0.7938 -15.0579,0.13446 -21.87,1.97964 -9.8334,2.66247 -16.8318,8.9829 -25.11,14.45121 M 784.48289,859.23449 c 15.91002,-1.87758 33.32502,1.05543 48.6,5.43834 94.48731,27.11394 131.89959,144.09907 73.40625,221.94007 -9.64953,12.8385 -21.76875,24.219 -35.33625,32.8536 -18.70695,11.9151 -39.54582,19.3833 -61.56,21.9915 -17.74224,2.1141 -36.24264,0.891 -53.46,-4.05 -19.80936,-5.6862 -38.54628,-14.8797 -54.27,-28.3581 -67.6026,-57.9636 -65.32569,-166.96699 5.67,-221.16733 22.83633,-17.43363 48.83571,-25.33113 76.95,-28.64808 m -325.62,84.00834 c 11.45178,35.81415 21.82545,71.97667 33.4773,107.73007 4.37157,13.4136 7.10937,31.8492 22.4127,37.1709 14.8311,5.1597 28.63269,-1.8468 34.46226,-16.1109 6.0588,-14.823 9.54504,-30.9258 14.41638,-46.17 10.13715,-31.72777 20.36097,-63.57454 29.57715,-95.58007 4.0905,-14.2074 16.76538,-37.08018 11.34648,-51.84 -6.68088,-18.19422 -33.6636,-12.4821 -41.09292,1.62 -8.42886,15.99993 -11.78469,36.2232 -17.1396,53.46 -7.21953,23.23485 -18.29709,48.033 -21.84975,72.09007 h -0.81 c -1.52604,-10.32757 -6.13251,-20.76847 -9.1368,-30.78007 -7.30134,-24.33645 -15.309,-48.48417 -22.33899,-72.9 -3.67983,-12.77937 -8.60949,-29.0142 -22.79421,-33.39306 -12.22371,-3.77379 -26.51373,-0.80028 -34.19091,9.90306 -9.11898,12.71133 -12.15972,31.38912 -16.61229,46.17 -5.70645,18.94428 -12.0204,37.71117 -17.58024,56.7 -2.30769,7.8813 -6.23133,16.1028 -6.94656,24.30007 -10.81593,-20.60647 -14.97609,-47.40613 -21.89025,-69.66007 -4.35618,-14.02029 -8.38026,-28.16613 -12.93975,-42.12 -2.25666,-6.90525 -3.78351,-14.57757 -9.17406,-19.87416 -10.49112,-10.30806 -34.95879,-9.75159 -37.56213,7.72416 -1.20204,8.06922 1.92618,15.93675 4.33755,23.49 3.52269,11.03706 6.68736,22.18995 10.26594,33.21 12.73887,39.22911 23.90796,78.96697 36.46134,118.26007 5.98509,18.7272 13.48083,37.3167 36.98136,32.1651 16.96302,-3.7179 20.12445,-23.0688 24.57864,-37.0251 7.21548,-22.6071 14.16366,-45.3195 21.00816,-68.04007 4.01112,-13.31559 7.10532,-27.78867 12.7332,-40.5 M 1477.0328,867.52241 c -30.5046,6.50754 -19.6911,52.57305 10.53,46.01772 30.4965,-6.61365 19.3347,-52.38918 -10.53,-46.01772 m -415.53,83.01042 c -2.4786,-5.12244 -2.4462,-10.89126 -6.6501,-15.24015 -9.5337,-9.84717 -30.8691,-8.03925 -36.1827,5.52015 -3.9204,9.99783 -1.7172,23.44545 -1.7172,34.02 v 71.28007 c 0,10.611 -2.916,26.5113 3.7665,35.6076 9.5823,13.041 33.4368,9.7848 38.4345,-5.6376 2.4867,-7.6788 1.539,-16.3458 1.539,-24.3 v -42.12 c 0,-9.0396 -1.0449,-19.21327 3.24,-27.54007 8.8614,-17.22951 34.8543,-2.3652 41.6988,-22.68 0.891,-2.65518 1.1907,-5.31279 1.2312,-8.1 0.032,-3.21327 0.2511,-6.59826 -0.6399,-9.72 -7.0713,-24.86943 -39.5928,-8.50338 -44.7201,8.91 m 125.55,-21.52656 c -10.9512,1.41993 -21.1815,2.09304 -31.59,6.30423 -25.4745,10.30482 -36.1503,45.00198 -18.2493,67.0624 10.7325,13.2273 25.5474,16.8399 40.9293,21.87 8.2377,2.6892 30.8367,6.1884 28.9656,18.63 -1.4661,9.6795 -13.527,9.72 -20.8656,9.72 -9.6552,0 -18.7758,-2.7864 -27.54,-6.7311 -8.9262,-4.0095 -19.6992,-9.5823 -29.16,-3.6855 -14.0616,8.7723 -5.9697,26.9811 4.86,34.2954 19.0512,12.8709 45.7488,15.4224 68.04,12.2229 13.0491,-1.8711 26.9082,-6.1641 36.3123,-15.9246 12.3849,-12.8547 17.1153,-37.3329 8.3187,-53.3871 -5.427,-9.8982 -14.4828,-16.0704 -24.381,-20.84947 -12.1176,-5.8482 -25.5717,-8.1729 -38.07,-13.0167 -4.4793,-1.7334 -11.4696,-4.1472 -11.8746,-9.8739 -0.6561,-9.23562 13.0329,-9.74835 19.1646,-9.71919 14.904,0.0705 32.5701,12.16782 46.98,5.69349 9.6471,-4.3335 10.3923,-18.01359 4.6818,-25.87221 -6.8283,-9.38547 -18.9135,-13.03776 -29.7918,-14.96394 -8.2134,-1.45476 -18.4599,-2.84634 -26.73,-1.77471 m 396.9,146.26663 c 10.9269,8.2296 21.5055,14.4342 35.64,14.58 17.5608,0.1782 35.4375,-5.5809 47.6523,-18.6624 25.839,-27.6696 26.4303,-86.41087 6.5448,-117.41767 -13.527,-21.08592 -42.7599,-31.02948 -66.3471,-21.50307 -9.8496,3.97872 -16.6455,11.24037 -23.49,19.07307 -0.4212,-20.14713 -27.1269,-31.67586 -39.9735,-13.75785 -3.9123,5.45292 -3.7665,13.02399 -3.7665,19.42785 v 35.64 99.63007 c 0,14.2722 -3.3048,33.4449 1.7253,46.98 5.8968,15.8355 32.2137,16.2972 39.5847,1.62 3.4344,-6.8283 2.43,-15.2928 2.43,-22.68 v -42.93 M 809.60504,931.62176 c -5.50071,1.76094 -6.61527,7.64721 -8.28549,12.43107 -3.29427,9.43407 -5.09976,26.18568 -11.73528,33.68061 -13.45086,15.19479 -29.39328,0.52974 -44.79138,-1.12833 -6.45408,-0.69498 -11.32056,3.74868 -10.35342,10.37772 1.03518,7.0875 9.56367,8.3754 15.21342,10.2627 11.60163,3.86377 22.55688,5.12737 26.71704,18.08737 1.93914,6.0426 -4.51494,17.6337 -6.46704,23.49 l -19.98027,59.94 c -2.53773,7.614 -8.91243,27.1836 7.02027,24.4863 9.33525,-1.5876 11.28006,-17.0181 13.77,-24.4863 5.66757,-17.0019 11.19663,-34.0605 16.94925,-51.03 2.37411,-7.0065 3.6774,-16.2891 7.57674,-22.5666 1.82493,-2.9322 11.75067,-7.5168 15.16401,-7.5492 4.36671,-0.041 9.65925,2.8269 13.77,4.1958 9.42516,3.1428 18.92484,6.0345 28.35,9.1773 6.64038,2.2194 16.85367,7.3143 21.31272,-1.1097 4.46472,-8.4483 -4.15287,-12.8304 -10.78272,-14.9526 -11.36835,-3.6531 -22.69215,-7.4277 -34.02,-11.2023 -3.69927,-1.2393 -10.67337,-2.1789 -12.94947,-5.62957 -1.77633,-2.6892 -6.52536,-12.1986 -6.62418,-15.1632 -0.44307,-13.23702 10.97226,-27.33426 12.81825,-40.5 1.01169,-7.21953 -5.6214,-13.06935 -12.67245,-10.81107 m 645.55776,0.65691 c -11.5101,2.07522 -17.7147,11.73528 -15.2928,23.11416 1.1502,5.427 4.3335,9.73053 9.6228,11.69721 3.7584,1.39806 9.5904,0.28512 10.4085,5.32818 1.5471,9.48591 0.1215,20.33991 0.1215,29.95468 0,20.5173 -0.097,41.0427 0,61.56 0.073,14.9769 8.3673,27.864 25.11,25.6851 25.2396,-3.2805 18.63,-35.8587 18.63,-54.0351 v -68.85007 c 0,-8.79741 1.8549,-21.02436 -4.3659,-28.26495 -8.262,-9.6066 -32.8698,-8.2377 -44.2341,-6.18921 m 156.33,33.88797 c 34.7085,-5.1273 35.8344,45.00286 27.4833,66.98626 -3.4182,9.0153 -10.2222,17.4393 -20.1933,19.1727 -37.2843,6.4962 -40.8078,-41.3748 -29.7189,-66.15277 4.2039,-9.39357 11.6478,-18.41454 22.4289,-20.00619 z"
       id="path300"
       inkscape:export-filename="Worship group.png"
       inkscape:export-xdpi="96"
       inkscape:export-ydpi="96"
       inkscape:label="dicsi-logo" /><path
       id="rect1206"
       style="fill:#ffffff;fill-opacity:1;stroke-width:34.0731"
       d="m 839.81542,1280.0738 c -43.15543,-10e-5 -77.89843,34.741 -77.89843,77.8964 0,43.1555 34.74301,77.8985 77.89843,77.8985 h 320.36918 c 43.1554,0 77.8984,-34.743 77.8984,-77.8985 0,-43.1554 -34.743,-77.8964 -77.8984,-77.8964 z m 48.22461,24.8281 c 4.39306,0 8.91211,2.3851 8.91211,9.414 v 27.3633 c 3.63996,-4.6441 9.28781,-7.9082 17.19531,-7.9082 13.93227,0 24.47461,10.0407 24.47461,31.5039 0,22.7184 -10.54231,33.7637 -26.85937,33.7637 -5.89925,0 -12.05042,-3.1364 -15.94141,-8.9102 -1.6317,5.6483 -4.14085,8.9102 -9.78906,8.9102 -5.39718,0 -8.16016,-3.2623 -8.16016,-7.4043 0,-4.0165 1.38086,-6.4013 1.38086,-15.6895 v -61.6289 c 0,-7.0289 4.39406,-9.414 8.78711,-9.414 z m 147.60747,8.7871 c 4.393,0 8.9102,2.3852 8.9102,9.414 v 11.9239 h 8.1582 c 6.1502,0 8.6621,3.2637 8.6621,7.5312 0,4.2676 -2.5119,7.4043 -8.6621,7.4043 h -8.1582 v 24.7266 c -10e-5,6.9034 2.1353,9.0371 6.2773,9.0371 2.7613,0 4.0151,-1.0039 6.5254,-1.0039 2.7613,0 5.1465,2.1335 5.1465,5.7734 0,8.5351 -8.7865,10.543 -16.0664,10.543 -11.673,0 -19.5801,-6.4011 -19.5801,-23.3457 v -25.7305 h -1.0039 c -6.1503,0 -8.6602,-3.1367 -8.6602,-7.4043 0,-4.2675 2.5099,-7.5312 8.6602,-7.5312 h 1.0039 v -11.9239 c 0,-7.0288 4.394,-9.414 8.7871,-9.414 z m -54.47466,20.082 c 19.58046,0 29.24416,12.5525 29.24416,26.8613 0,9.0372 -4.3926,12.2989 -13.42969,12.2989 h -28.7422 c 1.75722,7.0289 6.90364,11.1718 16.56836,11.1718 8.78614,0 13.55424,-3.8906 17.94723,-3.8906 3.7655,0 6.5274,2.2594 6.5274,6.1504 0,10.2923 -17.57169,12.6758 -24.85158,12.6758 -21.3377,0 -34.51758,-12.4248 -34.51758,-32.6328 0,-19.5805 10.54379,-32.6348 31.2539,-32.6348 z m 112.96486,0 c 14.0578,0 26.6094,6.904 26.6094,21.7149 v 20.4589 c 0,9.2882 1.3809,11.673 1.3809,15.6895 0,4.142 -2.763,7.4043 -8.1602,7.4043 -5.6482,0 -8.9117,-3.1375 -10.9199,-8.6602 -3.891,5.3972 -10.4161,8.6602 -16.5664,8.6602 -13.4302,0 -20.836,-7.1534 -20.836,-20.207 0,-15.1875 11.9242,-18.9532 26.1075,-18.9532 3.891,0 7.7804,0.3769 11.2949,0.8789 v -4.6445 c 0,-5.1461 -3.2636,-7.4062 -8.0332,-7.4062 -3.2634,0 -5.5225,1.3809 -7.6563,3.2636 -2.1337,1.8828 -4.2671,3.5157 -8.6601,3.5157 -5.2717,0 -8.7852,-2.8883 -8.7852,-6.7793 0,-10.0413 12.9282,-14.9356 24.2246,-14.9356 z m -184.25782,14.9356 c -7.27993,0 -12.92774,7.2806 -12.92774,21.2129 0,3.1378 0.3753,5.6479 1.25391,7.6562 2.25928,5.0206 6.77749,6.5273 10.54297,6.5273 7.40543,0 12.17578,-6.9041 12.17578,-18.8281 0,-11.2964 -4.5181,-16.5683 -11.04492,-16.5683 z m 71.29296,0 c -6.65234,0 -10.79551,3.6407 -12.55273,9.791 h 23.9746 c -0.502,-6.7779 -5.14607,-9.791 -11.42187,-9.791 z m 114.09376,23.4726 c -7.1544,0 -11.9238,1.5057 -11.9238,6.7774 0,3.5144 2.6348,5.1464 6.9023,5.1464 5.6483,0 12.8028,-4.0173 12.8028,-9.289 0,-1.6317 -1.7565,-2.6348 -7.7813,-2.6348 z"
       inkscape:label="beta" /></g></svg>
