<svg xmlns="http://www.w3.org/2000/svg" width="1180" height="246" fill="none" viewBox="0 0 1180 246">
  <g filter="url(#a)">
    <path fill="#00C4CC" fill-rule="evenodd" d="M20.348-101.316c58.518 2.878 113.036 23.869 154.613 60.03 41.724 36.288 69.464 83.862 70.025 135.346.566 51.947-16.278 111.049-67.046 137.953C130.787 257 75.409 210.871 20.348 213.102c-61.194 2.48-122.516 62.817-172.889 32.301-49.722-30.121-23.598-98.412-23.62-151.343-.022-52.965-16.49-111.704 23.492-151.456 41.252-41.013 110.691-46.984 173.017-43.92Z" clip-rule="evenodd"/>
  </g>
  <g filter="url(#b)">
    <path fill="#BBF3F4" fill-rule="evenodd" d="M384.335-250.731c64.653-4.211 114.422 41.792 149.67 80.965 28.41 31.573 19.829 69.951 19.954 107.55.126 37.751 11.118 77.25-19.236 108.064-35.011 35.542-89.804 65.073-150.388 64.13-59.889-.932-103.597-36.94-144.014-68.71-37.969-29.846-79.063-63.151-75.049-103.485 3.866-38.843 59.536-59.779 94.272-89.671 41.25-35.497 60.695-94.668 124.791-98.843Z" clip-rule="evenodd"/>
  </g>
  <g filter="url(#c)">
    <path fill="#A570FF" fill-rule="evenodd" d="M1023.38 215.95c45.21 7.108 72.51 49.006 106.16 81 36.24 34.444 96.11 58.854 94.43 109.696-1.69 50.759-61.18 73.312-101.45 102.438-30.48 22.052-62.59 35.403-99.14 42.655-49.81 9.884-110.636 43.352-146.259 6.04-35.644-37.334 7.389-98.69 7.737-151.133.344-51.696-35.778-107.726-5.743-149.072 31.159-42.894 92.955-49.692 144.265-41.624Z" clip-rule="evenodd"/>
  </g>
  <g filter="url(#d)">
    <path fill="#E5CCFD" fill-rule="evenodd" d="M1235.98 206.118c76.28 4.036 85.5 116.949 140.89 169.562 58.62 55.677 163.78 63.152 185.95 140.896 25.07 87.903-.57 198.245-73.51 253.337-70.07 52.927-166.03 2.991-253.33-6.467-71.77-7.775-151.26 6.419-203.81-43.059-53.5-50.36-67.972-130.962-58.438-203.811 8.495-64.909 63.368-106.629 105.608-156.638 49.09-58.116 80.67-157.839 156.64-153.82Z" clip-rule="evenodd"/>
  </g>
  <g filter="url(#e)">
    <path fill="#C4BCFE" fill-rule="evenodd" d="M1120.01 161.018c56.18-1.246 75.24 62.966 115.94 95.65 42.79 34.358 127.55 48.015 124.99 97.802-2.57 50.095-91.66 55.024-134.62 89.677-40.92 33.005-50.54 96.402-106.31 104.656-58.3 8.631-109.85-31.054-151.559-66.485-41.535-35.28-86.478-78.742-77.229-127.848 8.804-46.737 79.165-59.288 118.788-92.791 39.72-33.585 53.78-99.414 110-100.661Z" clip-rule="evenodd"/>
  </g>
  <g filter="url(#f)">
    <path fill="#00C4CC" fill-rule="evenodd" d="M553.348-265.316c58.518 2.878 113.036 23.869 154.613 60.03 41.724 36.288 69.464 83.862 70.025 135.346.566 51.947-16.278 111.049-67.046 137.952C663.787 93 608.409 46.872 553.348 49.102c-61.194 2.48-122.516 62.817-172.889 32.301-49.722-30.12-23.598-98.412-23.62-151.343-.022-52.965-16.49-111.704 23.492-151.456 41.252-41.013 110.691-46.984 173.017-43.92Z" clip-rule="evenodd"/>
  </g>
  <defs>
    <filter id="a" width="1088" height="1016" x="-513" y="-432" color-interpolation-filters="sRGB" filterUnits="userSpaceOnUse">
      <feFlood flood-opacity="0" result="BackgroundImageFix"/>
      <feBlend in="SourceGraphic" in2="BackgroundImageFix" result="shape"/>
      <feGaussianBlur result="effect1_foregroundBlur_3_84" stdDeviation="165"/>
    </filter>
    <filter id="b" width="1191" height="1161" x="-235" y="-651" color-interpolation-filters="sRGB" filterUnits="userSpaceOnUse">
      <feFlood flood-opacity="0" result="BackgroundImageFix"/>
      <feBlend in="SourceGraphic" in2="BackgroundImageFix" result="shape"/>
      <feGaussianBlur result="effect1_foregroundBlur_3_84" stdDeviation="200"/>
    </filter>
    <filter id="c" width="1161" height="1162" x="463" y="-187" color-interpolation-filters="sRGB" filterUnits="userSpaceOnUse">
      <feFlood flood-opacity="0" result="BackgroundImageFix"/>
      <feBlend in="SourceGraphic" in2="BackgroundImageFix" result="shape"/>
      <feGaussianBlur result="effect1_foregroundBlur_3_84" stdDeviation="200"/>
    </filter>
    <filter id="d" width="1401.17" height="1387.86" x="571" y="-194" color-interpolation-filters="sRGB" filterUnits="userSpaceOnUse">
      <feFlood flood-opacity="0" result="BackgroundImageFix"/>
      <feBlend in="SourceGraphic" in2="BackgroundImageFix" result="shape"/>
      <feGaussianBlur result="effect1_foregroundBlur_3_84" stdDeviation="200"/>
    </filter>
    <filter id="e" width="1271" height="1189" x="490" y="-239" color-interpolation-filters="sRGB" filterUnits="userSpaceOnUse">
      <feFlood flood-opacity="0" result="BackgroundImageFix"/>
      <feBlend in="SourceGraphic" in2="BackgroundImageFix" result="shape"/>
      <feGaussianBlur result="effect1_foregroundBlur_3_84" stdDeviation="200"/>
    </filter>
    <filter id="f" width="1088" height="1016" x="20" y="-596" color-interpolation-filters="sRGB" filterUnits="userSpaceOnUse">
      <feFlood flood-opacity="0" result="BackgroundImageFix"/>
      <feBlend in="SourceGraphic" in2="BackgroundImageFix" result="shape"/>
      <feGaussianBlur result="effect1_foregroundBlur_3_84" stdDeviation="165"/>
    </filter>
  </defs>
</svg>