<?xml version="1.0" encoding="UTF-8" standalone="no"?>
<!-- Created with Inkscape (http://www.inkscape.org/) -->

<svg
   version="1.1"
   id="svg182"
   width="2273.2383"
   height="2276.844"
   viewBox="0 0 2273.2382 2276.844"
   sodipodi:docname="TTT logo.jpg"
   xmlns:inkscape="http://www.inkscape.org/namespaces/inkscape"
   xmlns:sodipodi="http://sodipodi.sourceforge.net/DTD/sodipodi-0.dtd"
   xmlns="http://www.w3.org/2000/svg"
   xmlns:svg="http://www.w3.org/2000/svg">
  <defs
     id="defs186" />
  <sodipodi:namedview
     id="namedview184"
     pagecolor="#ffffff"
     bordercolor="#000000"
     borderopacity="0.25"
     inkscape:showpageshadow="2"
     inkscape:pageopacity="0.0"
     inkscape:pagecheckerboard="0"
     inkscape:deskcolor="#d1d1d1"
     showgrid="false" />
  <g
     inkscape:groupmode="layer"
     inkscape:label="Image"
     id="g188"
     transform="translate(-229.89159,-226.54209)">
    <path
       style="fill:#010101;stroke:none;stroke-width:1.33333"
       d="m 1328,228.56534 c -20.1973,2.652 -41.0107,1.71866 -61.3333,3.66133 C 1216.0293,237.06534 1165.7333,244.248 1116,255.232 927.67201,296.82934 749.84534,388.24667 606.66667,517.56001 495.74267,617.74134 402.35334,739.21734 338.37467,874.66668 133.59467,1308.2 222.71867,1847.2934 572.00001,2181.28 c 204.948,195.9734 470.38399,308.9467 753.33329,321.3334 73.5067,3.2133 147.4534,-3.9334 220.0001,-15.1734 73.1866,-11.36 146.8133,-28.4666 216,-55.1866 26.4666,-10.2267 52.8666,-20.8267 78.6666,-32.6667 10.9867,-5.04 25.1067,-15.7067 37.3334,-16.4133 14,-0.8 30.2133,4.76 44,7.16 32.4533,5.6533 64.92,11.2533 97.3333,17.1066 98.5733,17.7734 197.4267,34.0134 296,51.7867 32.8667,5.9333 65.8,11.4133 98.6667,17.3333 15.3066,2.76 35.2133,9.7067 50.6666,6.8134 18.7334,-3.5067 28.4134,-18.56 27.9867,-36.7067 -0.88,-36.12 -13.96,-75.2267 -21.0533,-110.6667 -21.68,-108.3866 -42.2,-217.04 -64.2667,-325.3333 -6.3333,-31.0667 -12.1867,-62.24 -18.4,-93.3333 -2.3067,-11.56 -9.32,-28.4134 -6.08,-40 5.04,-18.0934 17.04,-36.08 24.6667,-53.3334 16.0933,-36.44 30.6266,-73.9466 42.44,-112 44.64,-143.6266 63.4,-299.64 49.1466,-449.3333 -11.4666,-120.3814 -40.2666,-239.736 -88.92,-350.66669 C 2273.3867,601.61734 2000.3334,361.01867 1673.3334,270.10134 1595,248.32 1515.6,236.09067 1434.6667,230.548 1400.1867,228.18667 1362.48,224.04 1328,228.56534 m -16,121.14933 c 20.3947,-2.40667 42.1333,-0.38133 62.6667,-0.38133 68.72,0 136.72,7.43066 204,21.78533 178.2533,38.02933 345.2133,124.69334 478.6667,249 C 2266,814.49201 2393.84,1103.736 2381.28,1390.6667 c -5.9066,134.9333 -33.0533,268.6133 -89.6933,392 -98.68,214.9333 -270.2133,393.7467 -483.5867,496.9867 -105.4933,51.0533 -218.48,82.1733 -334.6666,95.96 -121.8667,14.48 -250.9694,4.52 -369.3334,-28.3867 -143.91065,-40 -277.30799,-107.5467 -391.99999,-203.8133 -89.048,-74.7467 -166.32,-165.4267 -224.768,-266.08 -54.56134,-93.96 -95.91734,-197.28 -117.30001,-304 C 300.77334,1228.16 411.48267,864.21868 670.66667,622.78534 797.43201,504.70267 955.06134,417.22934 1124,377.17867 c 62.4867,-14.81333 124.6253,-19.98667 188,-27.464 m 0,62.85067 c -77.5973,10.188 -152.3933,17.624 -228,40.39467 -204.13599,61.48133 -384.56266,195.86533 -505.29999,371.04 -218.83334,317.50129 -221.31201,750.03999 -7.56,1070.66669 51.37733,77.0667 114.55067,147.3733 186.19333,206.1067 112.98667,92.6 243.91596,156.3733 385.33336,191.72 105.7773,26.4533 219.88,33.4266 328,20.4533 336.24,-40.3333 630.8,-253.9867 768.1867,-564.9467 50.12,-113.44 74.36,-235.3333 79.76,-358.6666 C 2337.76,952.06268 2019.9067,547.02401 1600,440.70134 c -72.8666,-18.452 -147.5333,-28.70133 -222.6666,-28.70133 -21.3734,0 -44.1401,-2.216 -65.3334,0.56533 m 169.3334,515.82134 c 45.4933,-5.04534 71.52,43.33333 59.32,82.28002 -18.7467,59.8546 -39.48,119.1586 -59.32,178.6666 l -16.44,49.3334 c -1.9867,5.928 -6.9867,14.9013 -6.08,21.2133 1.36,9.6307 18.4,22.2013 23.7733,30.7867 8.16,13.0706 14.32,27.6493 17.88,42.6666 1.6533,7.0134 0.7867,18.8267 4.8933,24.76 3.5867,5.16 15.5867,6.6667 21.3067,8.5734 19.52,6.5067 39.08,12.8667 58.6667,19.12 73.0933,23.36 145.72,48.1867 218.6666,71.9867 15.3067,4.9866 33.3467,8.32 46.6667,17.7333 25.04,17.7333 30.8667,52.72 13.6667,77.8133 -31.7734,46.3467 -95.9067,10.8267 -136.3334,-2.6533 -61.2533,-20.4133 -122.7466,-40.04 -184,-60.44 -17.7333,-5.9067 -35.6,-11.4267 -53.3333,-17.3333 -7.32,-2.44 -17.5467,-8.1067 -25.3333,-7.6267 -11.4,0.6933 -27.56,19.4667 -38.6667,24.7467 -10.5467,5.0266 -21.88,9 -33.3333,11.32 -5.0267,1.0133 -12.6,0.36 -16.2134,4.5733 -8.2,9.5867 -10.92,30.16 -14.8933,42.0933 -11.1067,33.2934 -22.3067,66.5734 -32.932,100 -35.7267,112.4 -74.216,224.0934 -111.5174,336 l -27.5546,82.6667 c -10.8894,32.6667 -24.4947,65.9067 -64.8894,65.9067 -8.264,0 -16.3733,-1.4267 -24,-4.6 -66.4973,-27.68 -19.8506,-113.76 -4.444,-159.9734 40.2854,-120.8533 80.1614,-241.8133 120.444,-362.6666 L 1251.1107,1504 c 3.5706,-10.7066 14.4226,-30.1733 12.7293,-41.3333 -1.46,-9.6133 -15.4387,-21.7733 -20.3867,-30.6667 -6.564,-11.8 -8.2586,-35.7866 -17.364,-44.6533 -9.2,-8.96 -32.5666,-12.1733 -44.756,-15.8933 -33.952,-10.3734 -67.6546,-22.0001 -101.3333,-33.2267 -34.8453,-11.62 -82.99199,-18.968 -87.76799,-63.56 -4.06,-37.8907 30.87199,-68.2654 67.76799,-60.4414 47.596,10.0934 95.1667,30.3854 141.3333,45.7747 12.848,4.2827 25.6747,8.7613 38.6667,12.5653 4.6733,1.3694 11.052,4.9467 15.9947,3.7174 5.788,-1.44 10.6226,-8.796 14.904,-12.696 9.3173,-8.4907 19.256,-15.7467 30.4346,-21.6054 8.8094,-4.616 18.436,-8.056 28,-10.744 4.2934,-1.2053 10.2934,-1.192 13.2134,-4.9933 11.6266,-15.0933 15.0266,-44.216 21.2666,-62.244 17.7734,-51.288 34.1201,-103.1493 51.2934,-154.6667 12.24,-36.69062 21.0267,-75.93196 66.2267,-80.94662 z"
       id="path300" />
  </g>
</svg>
